HIERARCHY
ROOT hip
{
	OFFSET 0.000000 0.000000 0.000000 
	CHANNELS 6 Xposition Yposition Zposition Xrotation Zrotation Yrotation
	JOINT abdomen
	{
		OFFSET 0.000000 3.402643 0.000000 
		CHANNELS 3 Xrotation Zrotation Yrotation
		JOINT chest
		{
			OFFSET 0.000000 8.438565 -0.680529 
			CHANNELS 3 Xrotation Zrotation Yrotation
			JOINT neck
			{
				OFFSET 0.000000 10.207942 -0.272212 
				CHANNELS 3 Xrotation Zrotation Yrotation
				JOINT head
				{
					OFFSET 0.000000 3.130431 0.000000 
					CHANNELS 3 Xrotation Zrotation Yrotation
					End Site
					{
						OFFSET 0.000000 3.130435 0.000000 
					}
				}
			}
			JOINT lCollar
			{
				OFFSET 3.470700 6.669187 -0.816635 
				CHANNELS 3 Yrotation Zrotation Xrotation
				JOINT lShldr
				{
					OFFSET 3.198488 0.000000 0.000000 
					CHANNELS 3 Zrotation Yrotation Xrotation
					JOINT lForeArm
					{
						OFFSET 10.139888 0.000000 0.000000 
						CHANNELS 3 Yrotation Zrotation Xrotation
						JOINT lHand
						{
							OFFSET 8.370511 0.000000 0.000000 
							CHANNELS 3 Zrotation Yrotation Xrotation
							End Site
							{
								OFFSET 4.083176 0.000000 0.000000 
							}
						}
					}
				}
			}
			JOINT rCollar
			{
				OFFSET -3.470700 6.669187 -0.816635 
				CHANNELS 3 Yrotation Zrotation Xrotation
				JOINT rShldr
				{
					OFFSET -3.198488 0.000000 0.000000 
					CHANNELS 3 Zrotation Yrotation Xrotation
					JOINT rForeArm
					{
						OFFSET -10.139888 0.000000 0.000000 
						CHANNELS 3 Yrotation Zrotation Xrotation
						JOINT rHand
						{
							OFFSET -8.370511 0.000000 0.000000 
							CHANNELS 3 Zrotation Yrotation Xrotation
							End Site
							{
								OFFSET -4.083176 0.000000 0.000000 
							}
						}
					}
				}
			}
		}
	}
	JOINT lThigh
	{
		OFFSET 5.308129 -1.633274 1.361059 
		CHANNELS 3 Xrotation Zrotation Yrotation
		JOINT lShin
		{
			OFFSET -2.041588 -20.007561 0.000000 
			CHANNELS 3 Xrotation Zrotation Yrotation
			JOINT lFoot
			{
				OFFSET 0.000000 -19.190928 -1.224953 
				CHANNELS 3 Xrotation Yrotation Zrotation
				End Site
				{
					OFFSET 0.000000 -2.449906 4.627600 
				}
			}
		}
	}
	JOINT rThigh
	{
		OFFSET -5.308129 -1.633274 1.361059 
		CHANNELS 3 Xrotation Zrotation Yrotation
		JOINT rShin
		{
			OFFSET 2.041588 -20.007561 0.000000 
			CHANNELS 3 Xrotation Zrotation Yrotation
			JOINT rFoot
			{
				OFFSET 0.000000 -19.190928 -1.224953 
				CHANNELS 3 Xrotation Yrotation Zrotation
				End Site
				{
					OFFSET 0.000000 -2.449906 4.627600 
				}
			}
		}
	}
}
MOTION
Frames: 18
Frame Time: 0.016667
-0.014217 53.313541 -0.120093 -7.695313 -2.949219 0.537109 21.572264 4.785156 2.119111 5.224609 1.279297 0.253905 1.103516 0.136719 -0.019531 25.693357 -4.218750 1.357422 -11.093750 -17.832031 -0.966797 -64.765625 18.662111 -37.203903 -8.496095 -4.707031 19.101561 4.960938 6.835937 -45.008602 8.623047 13.066406 -0.695567 65.449219 -13.525392 -30.012049 5.751953 3.759766 19.276703 -12.685546 3.476563 -45.009178 13.382704 19.341690 20.609085 9.765944 -7.300666 -1.554013 -5.540348 11.414240 -14.839687 11.217461 -9.060468 -8.153296 10.881734 3.482229 0.731571 -5.706872 -12.356137 15.214420 
-0.011725 53.321014 -0.110129 -7.695313 -2.919922 0.478516 21.816404 4.794922 2.148438 5.156250 1.289063 0.205078 1.230469 -0.019531 -0.009766 25.664064 -4.501953 1.581265 -11.044922 -17.910158 -0.966797 -64.716797 18.710939 -37.255859 -8.544922 -4.775391 19.414875 4.794922 6.816407 -45.008606 8.876953 13.085937 -0.693359 65.439453 -13.759767 -30.344122 6.074219 3.886719 19.414061 -12.636718 3.544922 -45.009159 13.445303 19.285904 20.534203 9.756333 -7.330096 -1.554982 -5.886753 11.568751 -14.980022 11.277592 -9.081500 -8.246750 10.805652 3.463406 0.724781 -5.834145 -12.328756 15.379786 
-0.003264 53.332966 -0.092703 -7.646485 -2.880859 0.449219 22.246096 4.824219 2.159024 5.068359 1.298809 0.195535 1.318359 -0.205077 -0.000035 25.527344 -4.687500 1.718750 -11.015624 -18.037109 -0.973539 -64.628906 18.798828 -37.389427 -8.759767 -4.912109 19.736326 4.531250 6.826172 -45.009769 9.130859 13.134766 -0.693359 65.390625 -14.121095 -30.851988 6.621094 4.160156 19.979761 -12.480469 3.564453 -45.009762 13.470268 19.214203 20.523762 9.677844 -7.320086 -1.556077 -6.077250 11.690884 -15.129742 11.323920 -9.147683 -8.397907 10.692690 3.464745 0.707130 -5.706662 -12.174414 15.497264 
0.009177 53.347889 -0.070301 -7.568359 -2.822266 0.438972 22.773438 4.853515 2.158203 4.951172 1.308594 0.215067 1.376953 -0.410156 0.000000 25.341797 -4.794922 1.796875 -11.005859 -18.212891 -0.986328 -64.531250 18.876955 -37.578125 -9.091797 -5.000000 20.048824 4.199219 6.835937 -45.009766 9.375000 13.193360 -0.703125 65.302734 -14.550782 -31.467300 7.304688 4.550781 20.829304 -12.246093 3.574219 -45.009155 13.485031 19.130800 20.607334 9.606545 -7.298492 -1.614655 -6.210171 11.668353 -15.294732 11.333344 -9.254644 -8.604905 10.549973 3.490182 0.728821 -5.405568 -12.001661 15.546718 
0.020125 53.360821 -0.044412 -7.490234 -2.783203 0.419448 23.330078 4.873047 2.168798 4.853516 1.318359 0.234600 1.406250 -0.585938 -0.009866 25.156250 -4.902344 1.884766 -10.947265 -18.369141 -0.993016 -64.433594 18.945311 -37.770271 -9.453125 -5.000000 20.341795 3.818359 6.894531 -45.009766 9.550781 13.261719 -0.715131 65.214844 -14.931641 -32.014236 7.968750 4.941407 21.620253 -12.011720 3.593750 -45.009766 13.503640 19.022390 20.687738 9.541562 -7.271189 -1.587605 -6.317285 11.614191 -15.409374 11.344829 -9.343852 -8.788815 10.398269 3.513121 0.719769 -5.126552 -11.769303 15.587993 
0.025096 53.365784 -0.004584 -7.431640 -2.812500 0.390146 24.003906 4.931641 2.226563 4.843750 1.298828 0.224609 1.289063 -0.654297 -0.009766 24.951172 -4.980469 2.031250 -10.781250 -18.447268 -0.996094 -64.384766 18.994141 -37.975334 -10.048829 -5.000000 20.498049 3.300781 7.070312 -45.008568 9.492188 13.378907 -0.712891 65.029297 -15.117188 -32.314453 8.574219 4.990234 22.186649 -11.699219 3.662110 -45.009140 13.537102 19.027782 20.873669 9.501916 -7.241657 -1.599979 -6.288002 11.483880 -15.522141 11.371685 -9.343029 -8.928473 10.193522 3.474222 0.741858 -4.910639 -11.534420 15.592613 
0.030069 53.370743 0.035246 -7.373046 -2.841797 0.370610 24.687500 4.970704 2.286002 4.824219 1.279297 0.224608 1.171875 -0.732422 -0.000125 24.755859 -5.068359 2.177735 -10.615235 -18.515627 -1.005859 -64.326172 19.033201 -38.183594 -10.644531 -5.000000 20.673828 2.802734 7.255858 -45.008537 9.443359 13.486330 -0.724934 64.853516 -15.283204 -32.617188 9.169923 4.990234 22.762821 -11.406251 3.720703 -45.009769 13.569915 19.021280 21.054922 9.475053 -7.213895 -1.537980 -6.281629 11.388462 -15.627705 11.395378 -9.345474 -9.077633 9.991178 3.432591 0.715770 -4.623724 -11.335025 15.594726 
0.035049 53.365761 0.092985 -7.343750 -2.822265 0.332031 25.419922 4.970703 2.324219 4.814453 1.220703 0.244141 0.996094 -0.683594 -0.000117 24.716799 -5.312500 2.108471 -10.537109 -18.505861 -0.996094 -64.287109 19.160158 -38.463589 -11.289063 -5.000000 21.084831 2.021484 7.539063 -45.009766 9.316406 13.564453 -0.722656 64.746094 -15.380858 -32.873680 9.746094 4.990234 23.251953 -11.132813 3.730469 -45.009449 13.657451 18.971807 21.214594 9.440546 -7.210440 -1.543425 -6.463573 11.333805 -15.633178 11.477339 -9.370661 -9.431661 9.842086 3.327568 0.659066 -4.590724 -10.920799 15.824010 
0.040031 53.358273 0.155196 -7.314454 -2.792969 0.302734 26.181641 4.970703 2.343750 4.794922 1.152344 0.263672 0.820313 -0.615234 0.000000 24.746094 -5.595704 1.981470 -10.488281 -18.466797 -0.986328 -64.267578 19.296875 -38.779297 -11.943359 -5.000000 21.543819 1.152344 7.832031 -45.009766 9.179688 13.632812 -0.732422 64.638672 -15.468749 -33.115234 10.322265 4.990234 23.701172 -10.878907 3.720703 -45.009769 13.745656 18.933548 21.366434 9.416568 -7.226430 -1.523118 -6.721766 11.276317 -15.687693 11.545757 -9.380497 -9.871452 9.699760 3.169480 0.600294 -4.629502 -10.558691 16.092636 
0.049986 53.347820 0.226379 -7.255859 -2.773497 0.282732 26.933592 4.970703 2.373047 4.794922 1.083984 0.244325 0.712891 -0.576172 -0.000098 24.765623 -5.810547 2.011719 -10.468750 -18.408203 -0.996094 -64.228516 19.501953 -39.130856 -12.626954 -5.000000 22.099609 0.087891 8.291017 -45.009766 9.052734 13.681641 -0.734732 64.531250 -15.566406 -33.361996 10.937500 4.990234 24.139774 -10.449220 3.681641 -45.009766 13.815278 18.895130 21.505869 9.414775 -7.212867 -1.512553 -6.859790 11.094802 -15.751348 11.637736 -9.392740 -10.361218 9.616390 3.014746 0.555124 -4.524046 -10.101113 16.364708 
0.067406 53.332893 0.311006 -7.177734 -2.773437 0.272965 27.646482 5.029296 2.412109 4.794922 1.025391 0.146659 0.712891 -0.585938 -0.009866 24.785158 -5.927735 2.303679 -10.488281 -18.320313 -0.996094 -64.208984 19.785158 -39.557243 -13.378906 -5.000191 22.783228 -1.298828 9.023438 -45.009766 8.916016 13.710938 -0.732422 64.394531 -15.693358 -33.586624 11.591798 4.990234 24.530397 -9.755859 3.544922 -45.009769 13.839453 18.852634 21.591000 9.376447 -7.167164 -1.466739 -6.781925 11.002325 -15.839336 11.713881 -9.362715 -10.923725 9.598899 2.869066 0.554084 -4.226823 -9.581581 16.699556 
0.084825 53.317966 0.395640 -7.099609 -2.773438 0.273437 28.378908 5.068359 2.461763 4.794922 0.957031 0.048991 0.722656 -0.605469 -0.000103 24.814453 -6.044921 2.578125 -10.507813 -18.232422 -0.986328 -64.179688 20.068359 -39.990234 -14.121095 -5.000000 23.447262 -2.714844 9.726563 -45.008114 8.779296 13.730470 -0.722657 64.267578 -15.820313 -33.821026 12.255860 4.990234 24.911259 -9.072266 3.417969 -45.009182 13.882656 18.796579 21.693165 9.365313 -7.134290 -1.424750 -6.726347 10.848355 -15.932550 11.792466 -9.343771 -11.487877 9.553984 2.749852 0.485248 -3.936056 -8.971511 17.033773 
0.097259 53.303036 0.535015 -7.070313 -2.773437 0.244141 29.111328 5.097656 2.422743 4.853516 0.927734 0.048986 0.830078 -0.517578 -0.009854 24.941406 -6.113281 2.753906 -10.615235 -18.046877 -0.976563 -64.140625 20.537111 -40.458984 -14.980470 -5.000000 24.238277 -4.931641 10.410157 -45.009769 8.603516 13.671875 -0.722656 64.150391 -16.064453 -34.172623 13.193360 4.990234 25.233522 -7.666015 2.744141 -45.009296 14.104885 18.794727 22.007622 9.361321 -7.170577 -1.474608 -6.873781 10.760261 -16.029745 11.988865 -9.343686 -11.719569 9.518566 2.690914 0.518043 -3.917266 -8.729635 17.144735 
0.109690 53.288101 0.674390 -7.041016 -2.773438 0.214844 29.833986 5.107422 2.393448 4.902344 0.908203 0.039217 0.947266 -0.429688 -0.009766 25.078125 -6.171875 2.928638 -10.732421 -17.871094 -0.963800 -64.101563 21.015625 -40.927734 -15.830078 -5.000000 25.009768 -7.158203 11.103515 -45.007885 8.417968 13.603516 -0.722656 64.023438 -16.318357 -34.501953 14.121094 4.990234 25.546873 -6.269532 2.060547 -45.009769 14.333519 18.787888 22.300350 9.364637 -7.231295 -1.468642 -7.038440 10.693994 -16.116577 12.156514 -9.374735 -11.966289 9.499180 2.653491 0.494915 -3.845724 -8.399463 17.315105 
0.116154 53.273174 0.840629 -6.992188 -2.783203 0.185547 30.576172 5.126954 2.333984 4.980469 0.927734 -0.087733 1.044922 -0.410156 -0.000070 25.146486 -6.328125 3.162986 -10.683593 -17.695313 -0.944297 -63.955078 21.494141 -41.275719 -16.621094 -5.000000 25.791016 -9.453125 11.699220 -45.009769 8.281250 13.427734 -0.715158 63.867188 -16.640625 -34.814453 15.390624 4.990234 25.898436 -4.296875 0.839844 -45.009769 14.607757 18.788898 22.540766 9.287241 -7.280861 -1.552677 -7.172441 10.635102 -16.179810 12.372839 -9.365338 -12.107347 9.431429 2.643043 0.480303 -3.896677 -8.212889 17.421831 
0.118636 53.258247 1.024777 -6.933594 -2.802734 0.185069 31.318357 5.146484 2.275391 5.068359 0.986313 -0.292806 1.152344 -0.429688 -0.009766 25.166016 -6.533203 3.466797 -10.527343 -17.519533 -0.934560 -63.740234 21.982422 -41.529549 -17.363279 -5.000000 26.582882 -11.787109 12.324219 -45.007679 8.173828 13.183594 -0.705352 63.691406 -17.001955 -35.097656 16.875000 4.990234 26.278444 -1.943359 -0.722656 -45.009895 14.894822 18.794899 22.725437 9.139303 -7.357781 -1.541291 -7.259462 10.643723 -16.215219 12.614155 -9.324818 -12.233788 9.309951 2.603478 0.490053 -4.058164 -8.148771 17.478558 
0.121619 53.242828 1.218878 -6.884765 -2.832031 0.185064 32.060547 5.166016 2.216797 5.166016 1.035156 -0.478338 1.250000 -0.468750 -0.009766 25.195311 -6.728516 3.710938 -10.371094 -17.333986 -0.924825 -63.505856 22.470703 -41.744312 -18.066406 -5.000000 27.217648 -13.984375 13.076173 -45.009766 8.046876 12.919923 -0.685777 63.476563 -17.421875 -35.380856 18.398438 4.990234 26.727665 0.478516 -2.324219 -45.010162 15.196918 18.813957 22.873539 8.985621 -7.408355 -1.500317 -7.292540 10.555539 -16.265087 12.824091 -9.272782 -12.357665 9.231084 2.591930 0.513809 -4.189867 -8.070368 17.550911 
0.126592 53.225391 1.452783 -6.855469 -2.890625 0.165523 32.812500 5.185547 2.148437 5.273438 1.074202 -0.634594 1.347656 -0.566406 -0.009862 25.214842 -6.845703 3.730469 -10.224608 -17.128906 -0.905327 -63.232422 22.871094 -41.826168 -18.632813 -5.000000 27.276241 -15.751953 14.042968 -45.007397 7.968750 12.587891 -0.666191 63.124996 -18.027344 -35.615234 20.146484 4.990234 27.547977 3.164063 -4.072266 -45.010460 15.602683 18.807007 23.016352 8.761373 -7.447555 -1.498971 -7.256360 10.537160 -16.251980 13.125854 -9.214483 -12.332119 9.137060 2.565382 0.506286 -4.354623 -8.101843 17.536720 
